<svg width="429" height="578" viewBox="0 0 429 578" fill="none" xmlns="http://www.w3.org/2000/svg">
<path d="M399.346 0L428.371 133.115L276.239 205.178L371.321 181.157L428.371 193.167V475.411L100.087 577.5L31.0273 543.471V278.241L0 141.122L326.282 0H399.346ZM292.888 420.631C282.767 386.706 250.216 383.29 195.912 399.49C141.484 415.728 116.126 436.42 126.247 470.345C137.035 506.506 172.485 506.486 223.31 491.323C277.613 475.123 303.675 456.792 292.888 420.631ZM202.4 421.237C228.123 413.563 243.611 414.22 249.395 433.605C255.141 452.867 242.047 462.051 216.821 469.577C191.347 477.177 175.486 476.63 169.74 457.369C163.957 437.984 176.926 428.837 202.4 421.237ZM285.059 375.602L291.547 397.349L333.549 384.818L353.012 450.058L384.948 440.53L365.485 375.29L407.487 362.76L400.999 341.013L285.059 375.602ZM229.4 281.206C226.027 269.668 209.156 264.447 191.798 269.521L105.079 294.762L126.351 367.521L219.202 340.488C236.561 335.413 247.828 321.852 244.455 310.314C242.358 303.142 235.203 298.352 225.897 297.011C229.511 292.005 230.92 286.403 229.4 281.206ZM201.447 314.877C205.605 313.661 209.599 314.976 210.42 317.782C211.24 320.589 208.583 323.848 204.426 325.063L154.325 339.711L151.347 329.524L201.447 314.877ZM419.881 242.216C411.615 213.943 392.452 208.601 362.205 217.444L281.337 241.087C250.986 249.96 237.822 264.753 246.088 293.025C254.961 323.377 275.418 326.197 303.794 317.901L384.662 294.259C414.91 285.416 428.754 272.567 419.881 242.216ZM187.657 290.477C191.815 289.261 195.882 290.441 196.703 293.247C197.524 296.054 194.762 299.343 190.604 300.559L146.637 313.413L143.688 303.331L187.657 290.477ZM367.522 235.635C381.867 231.441 390.847 233.216 395.558 249.327C400.298 265.542 393.376 271.966 379.344 276.068L298.477 299.711C284.236 303.874 275.047 302.16 270.307 285.945C265.596 269.834 272.415 263.441 286.655 259.277L367.522 235.635ZM230.281 141.547C221.727 123.118 192.456 118.63 164.876 131.431L62.9424 178.741L104.236 267.711L144.908 248.834L134.585 226.591L183.771 203.762L211.635 217.863L257.645 196.509L221.934 178.479C231.812 166.48 235.472 152.732 230.281 141.547ZM167.7 157.153C176.978 152.847 186.651 154.383 189.482 160.483C192.314 166.584 187.302 175.089 178.023 179.396L124.261 204.349L113.938 182.106L167.7 157.153ZM227.029 102.583L268.322 191.553L405.462 127.901L395.139 105.658L298.671 150.433L293.479 139.248L382.448 97.9541L372.125 75.7119L283.156 117.006L278.023 105.948L374.491 61.1738L364.168 38.9316L227.029 102.583Z" fill="white"/>
</svg>
